# xmcd
#
# Track frame offsets: 
#        150
#        20239
#        34239
#        50583
#        76357
#        100369
#        121387
#        153543
#        187522
#        213730
#        224257
#        240569
#        261932
#        310176
#
# Disc length: 4465 seconds
#
# Revision: 0
# Processed by: cddbd v1.5.2PL0 Copyright (c) Steve Scherf et al.
# Submitted via: ExactAudioCopy v0.99pb4
#
DISCID=c6116f0e
DTITLE=Various Artist - Twenty Nine BEST OF BLUE NOTE [CD1)
DYEAR=2009
DGENRE=Blues
TTITLE0=What A Wonderful World - Stacey Kent
TTITLE1=Don't Know Why - Norah Jones
TTITLE2=Easy To Love - Patricia Barber
TTITLE3=Le Jardin d'Hiver - Jacky Terrasson
TTITLE4=Exactly Like You - Dianne Reeves
TTITLE5=Calling You - Holly Cole
TTITLE6=I Remember Clifford - Lee Morgan
TTITLE7=Body And Soul - Joe Lovano
TTITLE8=Baby Won't You Please Come Home - Jacinta
TTITLE9=My Funny Valentine - Chet Baker
TTITLE10=My One And Only Love - Chick Corea
TTITLE11=September Second - Michel Petrucciani
TTITLE12=Blue Train - John Coltrane
TTITLE13=Cantaloupe Island - Herbie Hancock
EXTD=
EXTT0=
EXTT1=
EXTT2=
EXTT3=
EXTT4=
EXTT5=
EXTT6=
EXTT7=
EXTT8=
EXTT9=
EXTT10=
EXTT11=
EXTT12=
EXTT13=
PLAYORDER=
